<?xml version="1.0" ?><svg xmlns="http://www.w3.org/2000/svg" viewBox="0 0 64 64"><defs><style>.cls-1{fill:#fff;}.cls-2{fill:#0045a1;}.cls-3{fill:#ce2a37;}</style></defs><title/><g id="South_Korea" data-name="South Korea"><circle class="cls-1" cx="32" cy="32" r="24"/><path class="cls-2" d="M22.76,28.18A5,5,0,0,0,32,32a5,5,0,0,1,9.24,3.82,10,10,0,0,1-18.48-7.64Z"/><path class="cls-3" d="M22.76,28.18a10,10,0,1,1,18.48,7.64A5,5,0,0,0,32,32a5,5,0,0,1-9.24-3.82Z"/><rect x="16.7" y="21.1" width="10" height="1.2" transform="translate(-8.99 21.7) rotate(-45)"/><rect x="15" y="19.4" width="10" height="1.2" transform="translate(-8.28 20) rotate(-45)"/><rect x="13.3" y="17.7" width="10" height="1.2" transform="translate(-7.58 18.3) rotate(-45)"/><rect x="38.18" y="18.98" width="4" height="1.2" transform="translate(25.61 -22.68) rotate(45)"/><rect x="39" y="19.4" width="10" height="1.2" transform="translate(27.03 -25.25) rotate(45)"/><rect x="41.58" y="15.58" width="4" height="1.2" transform="translate(24.21 -26.07) rotate(45)"/><rect x="42.42" y="23.22" width="4" height="1.2" transform="translate(29.85 -24.44) rotate(45)"/><rect x="45.82" y="19.82" width="4" height="1.2" transform="translate(28.45 -27.83) rotate(45)"/><rect x="13.3" y="45.1" width="10" height="1.2" transform="translate(37.67 0.44) rotate(45)"/><rect x="15.88" y="41.28" width="4" height="1.2" transform="translate(34.85 -0.38) rotate(45)"/><rect x="20.12" y="45.52" width="4" height="1.2" transform="translate(39.09 -2.13) rotate(45)"/><rect x="16.7" y="41.7" width="10" height="1.2" transform="translate(36.27 -2.95) rotate(45)"/><rect x="41.58" y="47.22" width="4" height="1.2" transform="translate(-21.05 44.82) rotate(-45)"/><rect x="39.88" y="45.52" width="4" height="1.2" transform="translate(-20.35 43.12) rotate(-45)"/><rect x="38.18" y="43.82" width="4" height="1.2" transform="translate(-19.64 41.42) rotate(-45)"/><rect x="45.82" y="42.98" width="4" height="1.2" transform="translate(-16.81 46.58) rotate(-45)"/><rect x="44.12" y="41.28" width="4" height="1.2" transform="translate(-16.1 44.88) rotate(-45)"/><rect x="42.42" y="39.58" width="4" height="1.2" transform="translate(-15.4 43.18) rotate(-45)"/></g></svg>