<?xml version="1.0" ?><svg xmlns="http://www.w3.org/2000/svg" viewBox="0 0 64 64"><defs><style>.cls-1{fill:#fff;}.cls-2{fill:red;}.cls-3{fill:#010063;}.cls-4{fill:#ffcd00;}</style></defs><title/><g id="Malaysia"><path class="cls-1" d="M56,32a23.77,23.77,0,0,1-.76,6,24.2,24.2,0,0,1-7.38,12,24,24,0,0,1-31.72,0A24.2,24.2,0,0,1,8.76,38a24.06,24.06,0,0,1,0-12c.19-.73.41-1.44.66-2.14A22.29,22.29,0,0,1,11.23,20a20.8,20.8,0,0,1,1.47-2.26A23.46,23.46,0,0,1,16.14,14a24,24,0,0,1,31.72,0,24.2,24.2,0,0,1,7.38,12A23.77,23.77,0,0,1,56,32Z"/><path class="cls-2" d="M47.86,14H16.14a24,24,0,0,1,31.72,0Z"/><path class="cls-2" d="M55.24,26H8.76c.19-.73.41-1.44.66-2.14A22.29,22.29,0,0,1,11.23,20H52.77A23.42,23.42,0,0,1,55.24,26Z"/><path class="cls-2" d="M56,32a23.77,23.77,0,0,1-.76,6H8.76A23.77,23.77,0,0,1,8,32Z"/><path class="cls-2" d="M52.77,44a23.48,23.48,0,0,1-4.91,6H16.14a23.48,23.48,0,0,1-4.91-6Z"/><path class="cls-1" d="M52.77,20H11.23a20.8,20.8,0,0,1,1.47-2.26A23.46,23.46,0,0,1,16.14,14H47.86A23.48,23.48,0,0,1,52.77,20Z"/><path class="cls-1" d="M56,32H8a23.77,23.77,0,0,1,.76-6H55.24A23.77,23.77,0,0,1,56,32Z"/><path class="cls-1" d="M55.24,38a23.42,23.42,0,0,1-2.47,6H11.23a23.42,23.42,0,0,1-2.47-6Z"/><path class="cls-1" d="M47.86,50a24,24,0,0,1-31.72,0Z"/><path class="cls-3" d="M32,8V32H8a23.77,23.77,0,0,1,.76-6c.19-.73.41-1.44.66-2.14A22.29,22.29,0,0,1,11.23,20a20.8,20.8,0,0,1,1.47-2.26A23.46,23.46,0,0,1,16.14,14,23.92,23.92,0,0,1,32,8Z"/><polygon class="cls-4" points="21.5 14 22.34 17.36 24.75 14.87 23.8 18.2 27.13 17.25 24.64 19.66 28 20.5 24.64 21.34 27.13 23.75 23.8 22.8 24.75 26.13 22.34 23.64 21.5 27 20.66 23.64 18.25 26.13 19.2 22.8 15.87 23.75 18.36 21.34 15 20.5 18.36 19.66 15.87 17.25 19.2 18.2 18.25 14.87 20.66 17.36 21.5 14"/><path class="cls-4" d="M19,28.33a8.31,8.31,0,0,1-1.94.23,8.59,8.59,0,0,1-7.64-4.7A22.29,22.29,0,0,1,11.23,20a20.8,20.8,0,0,1,1.47-2.26A8.45,8.45,0,0,0,12.39,20,8.53,8.53,0,0,0,19,28.33Z"/></g></svg>